<?xml version="1.0" standalone="no"?>
<!DOCTYPE svg PUBLIC "-//W3C//DTD SVG 20010904//EN"
 "http://www.w3.org/TR/2001/REC-SVG-20010904/DTD/svg10.dtd">
<svg version="1.0" xmlns="http://www.w3.org/2000/svg"
 width="700.000000pt" height="700.000000pt" viewBox="0 0 700.000000 700.000000"
 preserveAspectRatio="xMidYMid meet">
<metadata>
Created by potrace 1.14, written by Peter Selinger 2001-2017
</metadata>
<g transform="translate(0.000000,700.000000) scale(0.100000,-0.100000)"
fill="#000000" stroke="none">
<path d="M3240 6704 c-157 -118 -292 -220 -300 -227 -8 -7 -530 -399 -1160
-871 -630 -473 -1158 -870 -1175 -883 -16 -13 -34 -27 -40 -31 -227 -167 -435
-327 -436 -336 -4 -47 -3 -4290 1 -4295 3 -4 1521 -7 3375 -7 l3370 1 0 2166
1 2166 -101 75 c-55 42 -149 114 -210 160 -60 46 -279 211 -485 368 -206 156
-438 332 -515 390 -117 89 -335 254 -435 330 -110 83 -478 363 -490 373 -9 6
-106 79 -215 162 -110 82 -202 152 -205 155 -3 4 -23 19 -45 36 -22 16 -46 35
-53 42 -7 6 -17 12 -20 12 -4 0 -18 10 -32 23 -14 12 -50 40 -80 62 -30 22
-57 42 -60 45 -3 3 -21 17 -40 30 -19 14 -42 30 -50 37 -45 38 -305 233 -310
232 -3 0 -133 -97 -290 -215z m650 -2168 c19 -2 69 -7 110 -11 41 -3 82 -8 90
-10 8 -2 35 -7 60 -10 25 -3 56 -8 70 -10 14 -3 34 -7 45 -9 603 -118 1007
-440 1131 -902 23 -84 27 -121 28 -239 1 -208 -17 -308 -89 -490 -119 -298
-360 -561 -654 -714 -74 -38 -81 -44 -69 -59 8 -10 129 -170 269 -357 140
-187 259 -347 266 -355 48 -62 403 -538 403 -541 0 -3 -294 -5 -652 -4 l-653
0 -138 190 c-76 105 -157 217 -180 250 -22 33 -45 65 -50 70 -4 6 -102 141
-217 300 l-210 290 -222 5 c-123 3 -240 4 -260 2 l-38 -3 0 -457 c0 -251 0
-500 0 -552 l0 -95 -570 0 -570 0 -1 55 c0 30 -2 869 -3 1863 l-3 1808 1036
-5 c570 -3 1052 -7 1071 -10z"/>
<path d="M2948 3662 l-38 -3 0 -450 0 -451 428 5 c387 4 435 6 507 25 221 56
341 136 402 269 29 62 38 171 21 247 -45 204 -230 333 -502 352 -88 6 -757 11
-818 6z"/>
</g>
</svg>
