<?xml version="1.0" encoding="utf-8"?>
<!-- Generator: Adobe Illustrator 25.2.3, SVG Export Plug-In . SVG Version: 6.00 Build 0)  -->
<svg version="1.1" xmlns="http://www.w3.org/2000/svg" xmlns:xlink="http://www.w3.org/1999/xlink" x="0px" y="0px"
	 viewBox="0 0 4536 1528.3" style="enable-background:new 0 0 4536 1528.3;" xml:space="preserve">
<style type="text/css">
	.st0{fill:#FFFFFF;}
	.st1{fill:#A22A29;}
</style>
<g id="Layer_2">
</g>
<g id="Logo_xA0_Image">
	<g>
		<polygon class="st0" points="653.5,194 193.1,539.9 193.1,1122.9 1105.6,1122.9 1105.6,537.2 		"/>
		<g>
			<path class="st0" d="M6.5,617c-2,0-3.9-0.9-5.2-2.6c-2.2-2.9-1.6-7,1.3-9.1L810.8,1.3c2.9-2.1,7-1.6,9.1,1.3
				c2.2,2.9,1.6,7-1.3,9.1L10.4,615.7C9.2,616.5,7.9,617,6.5,617z"/>
		</g>
		<g>
			<path class="st0" d="M1376.8,691.2c-1.4,0-2.8-0.4-4-1.3L493,16.2c-2.9-2.2-3.4-6.3-1.2-9.1c2.2-2.9,6.3-3.4,9.1-1.2l879.9,673.7
				c2.9,2.2,3.4,6.3,1.2,9.1C1380.6,690.4,1378.7,691.2,1376.8,691.2z"/>
		</g>
		<g>
			<path class="st0" d="M1155.6,1430.3C1155.6,1430.3,1155.6,1430.3,1155.6,1430.3c-3.6,0-6.5-2.9-6.5-6.5l4.3-1222.1
				c0-3.6,2.9-6.5,6.5-6.5c3.6,0,6.5,2.9,6.5,6.5l-4.3,1222.1C1162.1,1427.4,1159.2,1430.3,1155.6,1430.3z"/>
		</g>
		<g>
			<path class="st0" d="M142.2,1528.3C142.2,1528.3,142.2,1528.3,142.2,1528.3c-3.6,0-6.5-2.9-6.5-6.5l2.5-1133.4
				c0-3.6,3-6.4,6.5-6.5c3.6,0,6.5,2.9,6.5,6.5l-2.5,1133.4C148.7,1525.4,145.8,1528.3,142.2,1528.3z"/>
		</g>
		<g>
			<path class="st0" d="M55.6,1187.8c-3.6,0-6.5-2.9-6.5-6.5c0-3.6,2.9-6.5,6.5-6.5l1440.1-2.3h0c3.6,0,6.5,2.9,6.5,6.5
				c0,3.6-2.9,6.5-6.5,6.5L55.6,1187.8C55.6,1187.8,55.6,1187.8,55.6,1187.8z"/>
		</g>
		<g>
			<path class="st1" d="M653.5,194L193.1,539.9v582.9h912.5V537.2L653.5,194z M750.1,1018.6L642.3,869.4l-70-0.6v149.9H417.5
				l-0.6-503.4c0,0,196.2-0.6,266.9,0.6c293.6,9.6,267.9,262.3,114,330.2c44.9,59.6,129.6,172.6,129.6,172.6H750.1z"/>
			<path class="st1" d="M666.4,635.1h-96.9v121.8h92c0,0,95.9,1.3,92.7-63.5C751,628.7,666.4,635.1,666.4,635.1z"/>
		</g>
		<g>
			<path class="st0" d="M1271.9,1251.7c0,22.6-17.8,40.4-40.9,40.4c-22.9,0-41.2-17.8-41.2-40.4c0-22.2,18.3-39.9,41.2-39.9
				C1254.1,1211.8,1271.9,1229.6,1271.9,1251.7z M1200,1251.7c0,17.8,13.2,31.9,31.2,31.9c17.5,0,30.4-14.1,30.4-31.7
				c0-17.8-12.9-32.1-30.7-32.1C1213.2,1219.8,1200,1234.2,1200,1251.7z M1224.6,1272.7h-9.3v-39.9c3.7-0.7,8.8-1.2,15.3-1.2
				c7.6,0,11,1.2,13.9,2.9c2.2,1.7,3.9,4.9,3.9,8.8c0,4.4-3.4,7.8-8.3,9.3v0.5c3.9,1.5,6.1,4.4,7.3,9.7c1.2,6.1,1.9,8.5,2.9,10h-10
				c-1.2-1.5-1.9-5.1-3.2-9.7c-0.7-4.4-3.2-6.3-8.3-6.3h-4.4V1272.7z M1224.9,1250h4.4c5.1,0,9.3-1.7,9.3-5.8c0-3.7-2.7-6.1-8.5-6.1
				c-2.4,0-4.1,0.2-5.1,0.5V1250z"/>
		</g>
	</g>
	<g>
		<path class="st0" d="M1887.6,619.6h-45.5v116.8h-88.9V391.7h172.6c76.5,0,119.9,50.6,119.9,114.7c0,59.9-36.7,92-68.7,103.4
			l70.3,126.6h-101.8L1887.6,619.6z M1912.4,466.6h-70.3v77.5h70.3c23.3,0,42.9-15,42.9-38.8
			C1955.3,481.6,1935.6,466.6,1912.4,466.6z"/>
		<path class="st0" d="M2120.6,391.7h252.7v74.9h-163.8V524h160.2v75.5h-160.2v62h163.8v74.9h-252.7V391.7z"/>
		<path class="st0" d="M2450.9,391.7h144.7c108.5,0,186.6,65.1,186.6,172.1c0,107-78,172.6-186,172.6h-145.2V391.7z M2595.6,658.8
			c60.5,0,95.6-43.9,95.6-95.1c0-53.2-32-94.6-95.1-94.6h-56.3v189.7H2595.6z"/>
		<path class="st0" d="M3010.5,391.7h195.3c68.2,0,100.8,44.4,100.8,87.9c0,42.9-26.4,71.8-58.9,79.1c36.7,5.7,65.6,40.8,65.6,84.2
			c0,50.1-33.6,93.5-101.3,93.5h-201.5V391.7z M3185.7,525c18.1,0,30.5-12.9,30.5-30c0-17.1-12.4-29.5-30.5-29.5h-86.3V525H3185.7z
			 M3188.8,662.5c21.2,0,34.1-12.9,34.1-31.5c0-17.6-12.4-32.6-34.1-32.6h-89.4v64.1H3188.8z"/>
		<path class="st0" d="M3608.5,684.2h-143.1l-17.6,52.2h-96.6l129.7-344.7h111.6l130.2,344.7H3626L3608.5,684.2z M3488.6,609.2h96.6
			l-48.6-140L3488.6,609.2z"/>
		<path class="st0" d="M3908.2,619.6h-45.5v116.8h-88.9V391.7h172.6c76.5,0,119.9,50.6,119.9,114.7c0,59.9-36.7,92-68.7,103.4
			l70.3,126.6h-101.8L3908.2,619.6z M3933,466.6h-70.3v77.5h70.3c23.3,0,42.9-15,42.9-38.8C3975.9,481.6,3956.2,466.6,3933,466.6z"
			/>
		<path class="st0" d="M4230.1,528.1v208.3h-88.9V391.7h91.5l139.5,198.4V391.7h89.4v344.7h-85.8L4230.1,528.1z"/>
		<path class="st0" d="M1889.3,874.5c63,0,101.9,31.1,123.1,66.9l-62.2,32.8c-11.7-19-33.7-34.1-60.9-34.1
			c-47.1,0-80.3,36.3-80.3,83.3c0,47.1,33.2,83.3,80.3,83.3c22.5,0,42.8-7.8,54.4-17.3v-24.2h-66.1v-61.8h139v112.7
			c-31.1,34.1-73,56.1-127.4,56.1c-85.9,0-155.9-57.4-155.9-149C1733.4,931.9,1803.4,874.5,1889.3,874.5z"/>
		<path class="st0" d="M2194.2,1069.7h-38v97.6h-74.3v-288h144.2c63.9,0,100.2,42.3,100.2,95.9c0,50.1-30.7,76.9-57.4,86.4
			l58.7,105.8h-85.1L2194.2,1069.7z M2214.9,941.9h-58.7v64.8h58.7c19.4,0,35.8-12.5,35.8-32.4
			C2250.8,954.4,2234.4,941.9,2214.9,941.9z"/>
		<path class="st0" d="M2528.4,874.5c88.1,0,153.7,61.3,153.7,149s-65.6,149-153.7,149s-154.2-61.3-154.2-149
			S2440.3,874.5,2528.4,874.5z M2528.4,940.2c-47.9,0-78.6,36.3-78.6,83.3c0,46.6,30.7,83.3,78.6,83.3c47.5,0,78.2-36.7,78.2-83.3
			C2606.6,976.4,2575.9,940.2,2528.4,940.2z"/>
		<path class="st0" d="M2741.3,879.3h75.6v168.8c0,34.1,18.1,58.7,58.3,58.7c39.7,0,57.9-24.6,57.9-58.7V879.3h75.6v171
			c0,71.7-41,122.2-133.4,122.2c-92.4,0-133.9-51-133.9-121.8V879.3z"/>
		<path class="st0" d="M3082,879.3h144.2c64.8,0,100.2,43.6,100.2,95.9c0,51.8-35.4,94.6-100.2,94.6h-70v97.6H3082V879.3z
			 M3216.3,941.9h-60v64.8h60c19.9,0,34.5-12.5,34.5-32C3250.9,954.8,3236.2,941.9,3216.3,941.9z"/>
		<path class="st0" d="M3343.3,1206.2c13.8-6.9,32-24.2,36.7-40.2c-2.2,0.9-6,1.7-9.9,1.7c-18.6,0-33.7-15.5-33.7-36.7
			c0-22,18.1-39.7,39.7-39.7c23.3,0,44,18.1,44,49.7c0,35.4-19,66.5-49.2,87.7L3343.3,1206.2z"/>
		<path class="st0" d="M3614.5,879.3h74.3v288h-74.3V879.3z"/>
		<path class="st0" d="M3836.4,993.3v174h-74.3v-288h76.4l116.6,165.8V879.3h74.7v288h-71.7L3836.4,993.3z"/>
		<path class="st0" d="M4088.6,1023.5c0-89,67.4-149,153.7-149c71.7,0,108.8,39.3,127.8,77.3l-63.9,30.2
			c-9.5-22.9-34.1-41.9-63.9-41.9c-44.9,0-78.2,36.3-78.2,83.3c0,47.1,33.2,83.3,78.2,83.3c29.8,0,54.4-19,63.9-41.9l63.9,30.2
			c-18.6,37.1-56.1,77.3-127.8,77.3C4156,1172.5,4088.6,1112,4088.6,1023.5z"/>
		<path class="st0" d="M4455.7,1091.3c22,0,40.6,18.6,40.6,40.6c0,22-18.6,40.6-40.6,40.6c-22,0-40.6-18.6-40.6-40.6
			C4415.1,1109.9,4433.6,1091.3,4455.7,1091.3z"/>
	</g>
</g>
</svg>
