<?xml version="1.0" encoding="utf-8"?>
<!-- Generator: Adobe Illustrator 25.2.1, SVG Export Plug-In . SVG Version: 6.00 Build 0)  -->
<svg version="1.1" id="Layer_1" xmlns="http://www.w3.org/2000/svg" xmlns:xlink="http://www.w3.org/1999/xlink" x="0px" y="0px"
	 viewBox="0 0 4336.9 1528.3" style="enable-background:new 0 0 4336.9 1528.3;" xml:space="preserve">
<style type="text/css">
	.st0{fill:#FFFFFF;}
	.st1{fill:#A22A29;}
	.st2{enable-background:new    ;}
</style>
<g id="Layer_2_1_">
</g>
<g id="Logo_xA0_Image">
	<g>
		<polygon class="st0" points="653.5,194 193.1,539.9 193.1,1122.9 1105.6,1122.9 1105.6,537.2 		"/>
		<g>
			<path class="st0" d="M6.5,617c-2,0-3.9-0.9-5.2-2.6c-2.2-2.9-1.6-7,1.3-9.1l808.2-604c2.9-2.1,7-1.6,9.1,1.3
				c2.2,2.9,1.6,7-1.3,9.1l-808.2,604C9.2,616.5,7.9,617,6.5,617z"/>
		</g>
		<g>
			<path class="st0" d="M1376.8,691.2c-1.4,0-2.8-0.4-4-1.3L493,16.2c-2.9-2.2-3.4-6.3-1.2-9.1c2.2-2.9,6.3-3.4,9.1-1.2l879.9,673.7
				c2.9,2.2,3.4,6.3,1.2,9.1C1380.6,690.4,1378.7,691.2,1376.8,691.2z"/>
		</g>
		<g>
			<path class="st0" d="M1155.6,1430.3L1155.6,1430.3c-3.6,0-6.5-2.9-6.5-6.5l4.3-1222.1c0-3.6,2.9-6.5,6.5-6.5s6.5,2.9,6.5,6.5
				l-4.3,1222.1C1162.1,1427.4,1159.2,1430.3,1155.6,1430.3z"/>
		</g>
		<g>
			<path class="st0" d="M142.2,1528.3L142.2,1528.3c-3.6,0-6.5-2.9-6.5-6.5l2.5-1133.4c0-3.6,3-6.4,6.5-6.5c3.6,0,6.5,2.9,6.5,6.5
				l-2.5,1133.4C148.7,1525.4,145.8,1528.3,142.2,1528.3z"/>
		</g>
		<g>
			<path class="st0" d="M55.6,1187.8c-3.6,0-6.5-2.9-6.5-6.5s2.9-6.5,6.5-6.5l1440.1-2.3l0,0c3.6,0,6.5,2.9,6.5,6.5
				s-2.9,6.5-6.5,6.5L55.6,1187.8L55.6,1187.8z"/>
		</g>
		<g>
			<path class="st1" d="M653.5,194L193.1,539.9v582.9h912.5V537.2L653.5,194z M750.1,1018.6L642.3,869.4l-70-0.6v149.9H417.5
				l-0.6-503.4c0,0,196.2-0.6,266.9,0.6c293.6,9.6,267.9,262.3,114,330.2c44.9,59.6,129.6,172.6,129.6,172.6H750.1V1018.6z"/>
			<path class="st1" d="M666.4,635.1h-96.9v121.8h92c0,0,95.9,1.3,92.7-63.5C751,628.7,666.4,635.1,666.4,635.1z"/>
		</g>
		<g>
			<path class="st0" d="M1271.9,1251.7c0,22.6-17.8,40.4-40.9,40.4c-22.9,0-41.2-17.8-41.2-40.4c0-22.2,18.3-39.9,41.2-39.9
				C1254.1,1211.8,1271.9,1229.6,1271.9,1251.7z M1200,1251.7c0,17.8,13.2,31.9,31.2,31.9c17.5,0,30.4-14.1,30.4-31.7
				c0-17.8-12.9-32.1-30.7-32.1C1213.2,1219.8,1200,1234.2,1200,1251.7z M1224.6,1272.7h-9.3v-39.9c3.7-0.7,8.8-1.2,15.3-1.2
				c7.6,0,11,1.2,13.9,2.9c2.2,1.7,3.9,4.9,3.9,8.8c0,4.4-3.4,7.8-8.3,9.3v0.5c3.9,1.5,6.1,4.4,7.3,9.7c1.2,6.1,1.9,8.5,2.9,10h-10
				c-1.2-1.5-1.9-5.1-3.2-9.7c-0.7-4.4-3.2-6.3-8.3-6.3h-4.4v15.9H1224.6z M1224.9,1250h4.4c5.1,0,9.3-1.7,9.3-5.8
				c0-3.7-2.7-6.1-8.5-6.1c-2.4,0-4.1,0.2-5.1,0.5v11.4H1224.9z"/>
		</g>
	</g>
	<g class="st2">
		<path class="st0" d="M1960.8,886.4l-61.8-88.6c-2.6,0.3-6.5,0.4-11.7,0.4H1819v88.2h-56.2V583.8h124.5c26.2,0,49.1,4.3,68.5,13
			s34.4,21,44.7,37.2c10.4,16.1,15.6,35.3,15.6,57.5c0,22.8-5.6,42.4-16.6,58.8c-11.1,16.4-27,28.7-47.8,36.7l69.6,99.4H1960.8z
			 M1940.5,646.9c-12.7-10.4-31.3-15.6-55.8-15.6H1819v120.6h65.7c24.5,0,43.1-5.3,55.8-15.8c12.7-10.5,19-25.4,19-44.7
			C1959.5,672.1,1953.2,657.3,1940.5,646.9z"/>
		<path class="st0" d="M2326.5,839.3v47.1h-226.9V583.8h220.9v47.1h-164.7v78.7h146.1v46.3h-146.1v83.4H2326.5z"/>
		<path class="st0" d="M2409.9,583.8h132.3c32.3,0,61,6.3,86,18.8c25.1,12.5,44.5,30.3,58.4,53.2c13.8,22.9,20.7,49.4,20.7,79.3
			c0,30-6.9,56.4-20.7,79.3c-13.8,22.9-33.3,40.6-58.4,53.2c-25.1,12.5-53.8,18.8-86,18.8h-132.3V583.8z M2539.6,838.8
			c22.2,0,41.7-4.2,58.6-12.8c16.9-8.5,29.8-20.6,38.9-36.3c9.1-15.7,13.6-33.9,13.6-54.7s-4.5-39-13.6-54.7
			c-9.1-15.7-22-27.8-38.9-36.3c-16.9-8.5-36.4-12.8-58.6-12.8h-73.5v207.5H2539.6z"/>
		<path class="st0" d="M3182,756.5c9.8,12.8,14.7,28.7,14.7,47.8c0,26.2-10.1,46.5-30.3,60.7c-20.2,14.3-49.6,21.4-88.2,21.4h-150.4
			V583.8h141.8c35.7,0,63.3,7,82.6,21c19.3,14,29,33.2,29,57.7c0,15-3.5,28.2-10.4,39.8c-6.9,11.5-16.4,20.5-28.5,26.8
			C3158.9,734.5,3172.2,743.7,3182,756.5z M2984,627.9v83.4h79.5c19.6,0,34.6-3.5,45.2-10.6c10.5-7.1,15.8-17.4,15.8-30.9
			c0-13.8-5.3-24.3-15.8-31.3c-10.5-7.1-25.6-10.6-45.2-10.6H2984z M3140,798.6c0-29.1-21.8-43.7-65.3-43.7H2984v87.3h90.8
			C3118.3,842.3,3140,827.7,3140,798.6z"/>
		<path class="st0" d="M3473.8,816.3h-151.3l-29.8,70h-57.9l136.2-302.6h55.3l136.6,302.6H3504L3473.8,816.3z M3455.2,772.3
			L3398.1,640l-56.6,132.3H3455.2z"/>
		<path class="st0" d="M3820,886.4l-61.8-88.6c-2.6,0.3-6.5,0.4-11.7,0.4h-68.3v88.2H3622V583.8h124.5c26.2,0,49.1,4.3,68.5,13
			s34.4,21,44.7,37.2c10.4,16.1,15.6,35.3,15.6,57.5c0,22.8-5.6,42.4-16.6,58.8c-11.1,16.4-27,28.7-47.8,36.7l69.6,99.4H3820z
			 M3799.7,646.9c-12.7-10.4-31.3-15.6-55.8-15.6h-65.7v120.6h65.7c24.5,0,43.1-5.3,55.8-15.8c12.7-10.5,19-25.4,19-44.7
			C3818.7,672.1,3812.4,657.3,3799.7,646.9z"/>
		<path class="st0" d="M4227.6,583.8v302.6h-46.3l-166.9-204.9v204.9h-55.8V583.8h46.3l166.9,204.9V583.8H4227.6z"/>
	</g>
	<g class="st2">
		<path class="st0" d="M1871.4,1159.4v26.3h-126.6v-168.8h123.2v26.3h-91.8v43.9h81.5v25.8h-81.5v46.5H1871.4z"/>
		<path class="st0" d="M2068.2,1016.9v168.8h-25.8l-93.1-114.3v114.3h-31.1v-168.8h25.8l93.1,114.3v-114.3H2068.2z"/>
		<path class="st0" d="M2240.5,1099.4h29.7v67.3c-8.7,6.9-18.8,12.2-30.4,15.9c-11.6,3.7-23.5,5.5-35.7,5.5
			c-17.2,0-32.7-3.7-46.5-11.2c-13.8-7.5-24.7-17.8-32.5-31c-7.9-13.2-11.8-28-11.8-44.6c0-16.6,3.9-31.4,11.8-44.6
			c7.9-13.2,18.8-23.5,32.7-31c13.9-7.5,29.5-11.2,46.9-11.2c14.1,0,27,2.3,38.6,7c11.6,4.7,21.3,11.5,29.2,20.5l-19.8,19.3
			c-12.9-12.9-28.4-19.3-46.5-19.3c-11.9,0-22.5,2.5-31.7,7.5c-9.2,5-16.5,12-21.7,21c-5.2,9-7.8,19.3-7.8,30.9
			c0,11.3,2.6,21.4,7.8,30.4c5.2,9,12.5,16.1,21.7,21.2c9.2,5.1,19.7,7.7,31.5,7.7c13.2,0,24.7-2.9,34.7-8.7V1099.4z"/>
		<path class="st0" d="M2323.2,1016.9h31.3v168.8h-31.3V1016.9z"/>
		<path class="st0" d="M2561.9,1016.9v168.8h-25.8l-93.1-114.3v114.3h-31.1v-168.8h25.8l93.1,114.3v-114.3H2561.9z"/>
		<path class="st0" d="M2745.6,1159.4v26.3H2619v-168.8h123.2v26.3h-91.8v43.9h81.5v25.8h-81.5v46.5H2745.6z"/>
		<path class="st0" d="M2918.9,1159.4v26.3h-126.6v-168.8h123.2v26.3h-91.8v43.9h81.5v25.8h-81.5v46.5H2918.9z"/>
		<path class="st0" d="M3076.1,1185.7l-34.5-49.4c-1.4,0.2-3.6,0.2-6.5,0.2H2997v49.2h-31.3v-168.8h69.4c14.6,0,27.4,2.4,38.2,7.2
			c10.8,4.8,19.2,11.7,25,20.7c5.8,9,8.7,19.7,8.7,32.1c0,12.7-3.1,23.6-9.3,32.8c-6.2,9.2-15.1,16-26.6,20.5l38.8,55.4H3076.1z
			 M3064.7,1052.1c-7.1-5.8-17.4-8.7-31.1-8.7H2997v67.3h36.6c13.7,0,24-2.9,31.1-8.8c7.1-5.9,10.6-14.2,10.6-25
			C3075.4,1066.2,3071.8,1057.9,3064.7,1052.1z"/>
		<path class="st0" d="M3153.7,1016.9h31.3v168.8h-31.3V1016.9z"/>
		<path class="st0" d="M3392.4,1016.9v168.8h-25.8l-93.1-114.3v114.3h-31.1v-168.8h25.8l93.1,114.3v-114.3H3392.4z"/>
		<path class="st0" d="M3564.7,1099.4h29.7v67.3c-8.7,6.9-18.8,12.2-30.4,15.9c-11.6,3.7-23.5,5.5-35.7,5.5
			c-17.2,0-32.7-3.7-46.5-11.2c-13.8-7.5-24.7-17.8-32.5-31c-7.9-13.2-11.8-28-11.8-44.6c0-16.6,3.9-31.4,11.8-44.6
			c7.9-13.2,18.8-23.5,32.7-31c13.9-7.5,29.5-11.2,46.9-11.2c14.1,0,27,2.3,38.6,7c11.6,4.7,21.3,11.5,29.2,20.5l-19.8,19.3
			c-12.9-12.9-28.4-19.3-46.5-19.3c-11.9,0-22.5,2.5-31.7,7.5c-9.2,5-16.5,12-21.7,21c-5.2,9-7.8,19.3-7.8,30.9
			c0,11.3,2.6,21.4,7.8,30.4c5.2,9,12.5,16.1,21.7,21.2c9.2,5.1,19.7,7.7,31.5,7.7c13.2,0,24.7-2.9,34.7-8.7V1099.4z"/>
		<path class="st0" d="M3670.8,1152.9c3.7,3.7,5.5,8.5,5.5,14.5c0,2.6-0.4,5.3-1.1,8.1c-0.7,2.8-2.2,7-4.5,12.7l-12.3,34H3639
			l9.6-36.9c-3.5-1.4-6.3-3.7-8.3-6.9c-2-3.1-3-6.8-3-11c0-5.9,1.8-10.8,5.5-14.5c3.7-3.7,8.4-5.5,14-5.5
			C3662.4,1147.3,3667.1,1149.2,3670.8,1152.9z"/>
		<path class="st0" d="M3798.8,1016.9h31.3v168.8h-31.3V1016.9z"/>
		<path class="st0" d="M4037.5,1016.9v168.8h-25.8l-93.1-114.3v114.3h-31.1v-168.8h25.8l93.1,114.3v-114.3H4037.5z"/>
		<path class="st0" d="M4126.5,1176.9c-13.7-7.5-24.5-17.8-32.3-31c-7.8-13.2-11.7-28-11.7-44.6c0-16.6,3.9-31.4,11.8-44.6
			c7.9-13.2,18.7-23.5,32.4-31c13.7-7.5,29.1-11.2,46.2-11.2c13.8,0,26.4,2.4,37.8,7.2c11.4,4.8,21.1,11.8,28.9,21l-20.3,19
			c-12.2-13.2-27.2-19.8-45.1-19.8c-11.6,0-21.9,2.5-31.1,7.6c-9.2,5.1-16.3,12.1-21.5,21.1c-5.1,9-7.7,19.2-7.7,30.6
			c0,11.4,2.6,21.6,7.7,30.6c5.1,9,12.3,16,21.5,21.1c9.2,5.1,19.5,7.6,31.1,7.6c17.8,0,32.9-6.7,45.1-20l20.3,19.3
			c-7.9,9.2-17.6,16.2-29,21c-11.5,4.8-24.1,7.2-38,7.2C4155.7,1188.1,4140.3,1184.3,4126.5,1176.9z"/>
		<path class="st0" d="M4277.6,1181.7c-3.9-3.8-5.8-8.6-5.8-14.3c0-5.9,1.9-10.8,5.7-14.5c3.8-3.7,8.5-5.5,14.1-5.5
			c5.6,0,10.3,1.8,14.1,5.5c3.8,3.7,5.7,8.5,5.7,14.5c0,5.8-1.9,10.6-5.8,14.3c-3.9,3.8-8.5,5.7-14,5.7
			C4286.1,1187.4,4281.4,1185.5,4277.6,1181.7z"/>
	</g>
</g>
</svg>
